<svg width="60" height="47" viewBox="0 0 60 47" fill="none" xmlns="http://www.w3.org/2000/svg">
    <path d="M19.58 21.98c2.331 1.013 4.15 2.534 5.455 4.561 1.305 2.028 1.958 4.424 1.958 7.188 0 3.963-1.259 7.189-3.776 9.677C20.699 45.802 17.483 47 13.567 47c-3.917 0-7.18-1.244-9.79-3.732C1.258 40.779 0 37.6 0 33.729c0-1.843.233-3.686.7-5.529.466-1.843 1.491-4.608 3.076-8.294L11.888 0h13.846L19.58 21.98zm33.007 0c2.331 1.013 4.15 2.534 5.455 4.561C59.347 28.57 60 30.965 60 33.73c0 3.963-1.259 7.189-3.776 9.677C53.706 45.802 50.49 47 46.574 47c-3.917 0-7.18-1.244-9.79-3.732-2.518-2.489-3.777-5.668-3.777-9.539 0-1.843.233-3.686.7-5.529.465-1.843 1.491-4.608 3.076-8.294L44.895 0h13.846l-6.154 21.98z" fill="#2A7C6B"/>
</svg>
